<?xml version="1.0" standalone="no"?>
<!DOCTYPE svg PUBLIC "-//W3C//DTD SVG 20010904//EN"
 "http://www.w3.org/TR/2001/REC-SVG-20010904/DTD/svg10.dtd">
<svg version="1.0" xmlns="http://www.w3.org/2000/svg"
 width="1024.000000pt" height="1024.000000pt" viewBox="0 0 1024.000000 1024.000000"
 preserveAspectRatio="xMidYMid meet">

<g transform="translate(0.000000,1024.000000) scale(0.100000,-0.100000)"
fill="#000000" stroke="none">
<path d="M506 9608 c-9 -12 -16 -30 -16 -40 0 -9 -7 -39 -15 -65 -16 -50 -36
-121 -61 -213 -9 -30 -20 -71 -26 -90 -6 -19 -15 -48 -19 -65 -8 -33 -33 -123
-55 -200 -8 -27 -23 -81 -33 -120 -10 -38 -35 -126 -55 -195 -19 -69 -43 -152
-52 -185 -9 -33 -20 -71 -24 -85 -11 -34 -63 -220 -89 -320 -7 -25 -18 -67
-26 -94 -8 -27 -12 -53 -9 -58 16 -26 110 12 128 51 47 106 266 379 436 544
41 39 97 94 125 121 44 43 228 192 273 222 413 270 587 352 962 451 52 14 122
29 155 34 33 5 94 14 135 20 41 6 216 13 388 16 286 3 313 2 319 -13 8 -21
-17 -41 -68 -54 -77 -21 -500 -248 -582 -312 -21 -16 -57 -40 -80 -54 -48 -27
-216 -174 -325 -284 -41 -41 -123 -138 -183 -215 -92 -118 -123 -167 -193
-310 -46 -93 -86 -179 -89 -190 -3 -11 -13 -40 -22 -65 -10 -25 -21 -72 -26
-105 -17 -111 -34 -190 -47 -212 -17 -31 -17 -595 0 -626 15 -25 38 -141 42
-205 1 -23 8 -48 14 -54 7 -7 12 -20 12 -31 0 -10 11 -42 23 -70 13 -29 32
-74 42 -102 10 -27 31 -70 47 -94 16 -24 42 -69 58 -101 16 -32 34 -61 40 -65
5 -3 25 -29 44 -58 35 -52 92 -120 215 -256 117 -130 482 -408 659 -502 48
-25 142 -76 209 -112 167 -90 356 -178 458 -214 33 -12 107 -42 165 -68 58
-25 139 -58 180 -72 41 -14 112 -41 158 -59 45 -19 88 -34 95 -34 6 0 49 -16
94 -34 45 -19 106 -40 135 -46 85 -21 420 -129 435 -141 11 -10 13 -275 13
-1563 0 -1413 -1 -1554 -16 -1575 -12 -17 -15 -37 -12 -79 11 -126 -78 -321
-195 -431 -63 -59 -69 -62 -103 -52 -16 5 -76 24 -134 41 -219 68 -516 191
-715 298 -128 68 -144 78 -277 167 -65 44 -138 91 -162 105 -56 33 -179 131
-236 189 -25 25 -74 71 -110 101 -86 73 -231 221 -283 290 -23 30 -70 88 -104
128 -35 40 -71 85 -80 100 -10 15 -42 61 -73 102 -31 41 -74 104 -97 140 -90
141 -275 510 -344 685 -24 61 -48 113 -53 117 -10 7 -27 0 -59 -24 -17 -12
-18 -58 -18 -808 l0 -795 76 -82 c88 -96 331 -295 405 -333 14 -7 41 -26 60
-41 105 -83 594 -341 710 -374 14 -4 39 -15 55 -25 31 -18 137 -54 325 -110
58 -18 139 -42 180 -55 41 -12 109 -30 150 -40 99 -23 120 -32 120 -49 0 -15
-56 -36 -96 -36 -57 0 -86 -14 -112 -52 -21 -33 -23 -41 -11 -49 16 -10 3667
-13 3693 -3 22 8 20 36 -4 66 -15 20 -34 28 -87 36 -109 18 -217 43 -231 54
-19 16 3 36 47 44 20 3 72 17 116 30 44 14 125 38 180 55 55 16 116 34 135 40
122 38 399 164 635 288 373 197 696 479 899 786 110 167 196 344 196 406 0 13
7 37 15 53 8 15 15 42 15 60 0 17 9 48 20 69 19 34 20 56 20 327 0 240 -3 295
-15 313 -13 20 -30 92 -55 227 -21 111 -36 152 -118 320 -50 105 -164 270
-285 415 -66 79 -252 261 -312 306 -296 219 -416 294 -699 437 -254 129 -358
178 -456 216 -168 64 -290 110 -340 126 -30 10 -96 34 -145 53 -112 44 -508
177 -527 177 -27 0 -172 51 -180 63 -4 6 -8 845 -8 1864 0 1795 1 1853 19
1862 14 8 32 3 77 -19 32 -16 62 -30 66 -30 17 0 310 -149 383 -194 98 -61
151 -99 330 -242 243 -193 497 -461 600 -634 22 -36 53 -83 71 -105 30 -39 64
-92 159 -249 26 -43 70 -127 97 -185 27 -58 55 -119 63 -136 8 -16 37 -88 66
-160 28 -71 55 -134 60 -139 5 -6 29 -3 62 7 50 16 55 20 75 70 12 29 22 60
22 70 0 10 6 30 14 45 7 15 16 44 20 66 4 21 16 55 27 75 10 20 19 54 19 76 0
23 5 46 12 53 6 6 14 30 19 54 4 24 19 77 33 118 14 41 35 109 47 150 29 103
57 196 74 251 8 26 15 57 15 71 0 13 6 32 14 43 7 11 16 40 20 63 6 43 5 45
-54 109 -81 87 -284 269 -335 301 -22 14 -62 43 -90 64 -87 67 -272 187 -368
238 -230 123 -567 280 -601 280 -6 0 -26 9 -44 20 -28 17 -32 23 -22 36 11 12
91 14 599 11 322 -3 606 -7 631 -11 25 -3 79 -11 120 -17 97 -14 312 -66 365
-89 22 -10 56 -21 75 -25 77 -16 396 -175 552 -276 78 -50 235 -163 298 -214
66 -54 261 -233 314 -289 153 -162 273 -306 356 -430 67 -98 118 -133 159
-107 9 6 10 14 5 22 -16 25 -34 84 -34 112 0 15 -4 35 -9 45 -9 18 -30 88 -56
187 -9 33 -22 80 -30 105 -7 25 -16 65 -20 90 -4 25 -14 57 -21 72 -8 15 -14
38 -14 52 0 14 -6 40 -14 58 -13 32 -33 98 -55 188 -36 142 -43 170 -56 215
-8 28 -20 75 -28 105 -15 57 -47 173 -74 270 -9 30 -22 72 -29 93 -8 20 -14
51 -14 67 0 17 -9 39 -20 50 -20 20 -33 20 -4609 20 l-4590 0 -15 -22z m3942
-284 l22 -15 0 -1738 c0 -1530 -2 -1740 -15 -1751 -16 -13 -36 -11 -104 15
-25 9 -81 27 -125 40 -95 29 -165 52 -336 110 -69 23 -154 51 -190 63 -155 48
-491 189 -630 262 -8 4 -67 34 -130 65 -152 76 -195 105 -390 261 -175 139
-242 208 -303 314 -21 36 -43 72 -48 80 -5 8 -16 31 -25 50 -9 19 -24 53 -34
75 -31 71 -32 73 -61 255 -17 104 -9 322 12 345 5 5 9 26 9 47 0 21 7 55 15
75 8 19 15 43 15 52 0 9 16 55 35 101 19 46 35 90 35 97 0 23 79 155 149 250
115 155 389 404 554 504 172 104 510 255 687 308 41 13 103 32 138 42 65 20
244 59 297 65 204 22 287 32 292 38 13 13 109 6 131 -10z m1427 -5168 c68 -28
238 -82 300 -96 55 -12 189 -61 307 -111 36 -16 70 -29 75 -29 15 0 262 -107
335 -145 38 -19 74 -35 80 -35 34 -1 230 -106 329 -176 26 -18 62 -40 80 -50
19 -9 54 -33 79 -54 25 -20 65 -50 90 -67 75 -51 188 -167 290 -298 64 -81 70
-91 106 -165 51 -107 60 -140 79 -280 7 -46 7 -324 0 -375 -9 -79 -24 -161
-33 -190 -22 -67 -86 -203 -120 -255 -90 -138 -243 -313 -328 -376 -22 -16
-73 -56 -115 -89 -72 -56 -108 -81 -219 -147 -83 -49 -164 -90 -225 -113 -33
-13 -89 -37 -125 -54 -132 -62 -448 -159 -692 -212 l-57 -12 -40 36 c-22 20
-58 48 -81 63 -22 15 -40 30 -40 34 0 4 -18 30 -40 56 -22 27 -40 52 -40 55 0
4 -16 41 -35 82 -19 41 -35 88 -35 103 -1 16 -7 40 -15 54 -12 21 -14 231 -15
1432 0 1278 1 1408 16 1423 16 16 30 15 89 -9z"/>
</g>
</svg>
